<svg xmlns="http://www.w3.org/2000/svg" viewBox="0 0 64 64">
  <!-- Compact cloud -->
  <ellipse cx="32" cy="18" rx="14" ry="9" fill="#C8A000"/>
  <ellipse cx="21" cy="22" rx="9" ry="7" fill="#C8A000"/>
  <ellipse cx="44" cy="22" rx="8" ry="6" fill="#C8A000"/>
  <ellipse cx="28" cy="11" rx="8" ry="6" fill="#C8A000"/>
  <rect x="12" y="18" width="38" height="10" rx="2" fill="#C8A000"/>
  <!-- Snowflake asterisks -->
  <g transform="translate(18,38)">
    <line x1="0" y1="-4" x2="0" y2="4" stroke="#C8A000" stroke-width="1.5" stroke-linecap="round"/>
    <line x1="-3.5" y1="-2" x2="3.5" y2="2" stroke="#C8A000" stroke-width="1.5" stroke-linecap="round"/>
    <line x1="-3.5" y1="2" x2="3.5" y2="-2" stroke="#C8A000" stroke-width="1.5" stroke-linecap="round"/>
  </g>
  <g transform="translate(32,36)">
    <line x1="0" y1="-4" x2="0" y2="4" stroke="#C8A000" stroke-width="1.5" stroke-linecap="round"/>
    <line x1="-3.5" y1="-2" x2="3.5" y2="2" stroke="#C8A000" stroke-width="1.5" stroke-linecap="round"/>
    <line x1="-3.5" y1="2" x2="3.5" y2="-2" stroke="#C8A000" stroke-width="1.5" stroke-linecap="round"/>
  </g>
  <g transform="translate(46,38)">
    <line x1="0" y1="-4" x2="0" y2="4" stroke="#C8A000" stroke-width="1.5" stroke-linecap="round"/>
    <line x1="-3.5" y1="-2" x2="3.5" y2="2" stroke="#C8A000" stroke-width="1.5" stroke-linecap="round"/>
    <line x1="-3.5" y1="2" x2="3.5" y2="-2" stroke="#C8A000" stroke-width="1.5" stroke-linecap="round"/>
  </g>
  <!-- Wind lines -->
  <line x1="12" y1="48" x2="30" y2="48" stroke="#C8A000" stroke-width="2" stroke-linecap="round"/>
  <line x1="34" y1="48" x2="52" y2="48" stroke="#C8A000" stroke-width="2" stroke-linecap="round"/>
  <line x1="18" y1="54" x2="46" y2="54" stroke="#C8A000" stroke-width="2" stroke-linecap="round"/>
</svg>
