<svg xmlns="http://www.w3.org/2000/svg" viewBox="0 0 64 64">
  <!-- Compact cloud -->
  <ellipse cx="32" cy="22" rx="14" ry="9" fill="#C8A000"/>
  <ellipse cx="21" cy="26" rx="9" ry="7" fill="#C8A000"/>
  <ellipse cx="44" cy="26" rx="8" ry="6" fill="#C8A000"/>
  <ellipse cx="28" cy="15" rx="8" ry="6" fill="#C8A000"/>
  <rect x="12" y="22" width="38" height="10" rx="2" fill="#C8A000"/>
  <!-- Tiny droplets (smaller than rain, evenly scattered) -->
  <path d="M20 38 L19 41 A2 2 0 1 0 21 41 Z" fill="#C8A000"/>
  <path d="M32 37 L31 40 A2 2 0 1 0 33 40 Z" fill="#C8A000"/>
  <path d="M44 39 L43 42 A2 2 0 1 0 45 42 Z" fill="#C8A000"/>
  <path d="M26 46 L25 49 A2 2 0 1 0 27 49 Z" fill="#C8A000"/>
  <path d="M38 45 L37 48 A2 2 0 1 0 39 48 Z" fill="#C8A000"/>
</svg>
