<svg xmlns="http://www.w3.org/2000/svg" viewBox="0 0 64 64">
  <!-- Compact cloud -->
  <ellipse cx="32" cy="20" rx="14" ry="9" fill="#C8A000"/>
  <ellipse cx="21" cy="24" rx="9" ry="7" fill="#C8A000"/>
  <ellipse cx="44" cy="24" rx="8" ry="6" fill="#C8A000"/>
  <ellipse cx="28" cy="13" rx="8" ry="6" fill="#C8A000"/>
  <rect x="12" y="20" width="38" height="10" rx="2" fill="#C8A000"/>
  <!-- Rain droplets -->
  <path d="M20 36 L18 41 A3 3 0 1 0 22 41 Z" fill="#C8A000"/>
  <path d="M32 36 L30 41 A3 3 0 1 0 34 41 Z" fill="#C8A000"/>
  <path d="M44 36 L42 41 A3 3 0 1 0 46 41 Z" fill="#C8A000"/>
  <!-- Ice diamond -->
  <polygon points="32,48 36,53 32,58 28,53" fill="#C8A000"/>
</svg>
